<svg xmlns="http://www.w3.org/2000/svg" width="512" height="512" viewBox="0 0 512 512" version="1.1">
	<path d="M 0 256.002 L 0 512.004 256.250 511.752 L 512.500 511.500 512.752 255.750 L 513.004 0 256.502 0 L 0 0 0 256.002 M 0.492 256.500 C 0.492 397.300, 0.608 454.751, 0.750 384.170 C 0.892 313.588, 0.892 198.388, 0.750 128.170 C 0.608 57.951, 0.492 115.700, 0.492 256.500 M 83.994 72.920 C 77.087 75.061, 71.861 79.434, 68.364 86 C 66.585 89.340, 66.500 93.604, 66.500 179.500 C 66.500 265.396, 66.585 269.660, 68.364 273 C 70.973 277.899, 74.820 281.816, 79.500 284.342 C 83.480 286.489, 83.824 286.500, 148 286.500 C 212.176 286.500, 212.520 286.489, 216.500 284.342 C 221.180 281.816, 225.027 277.899, 227.636 273 C 229.415 269.660, 229.500 265.396, 229.500 179.500 C 229.500 93.604, 229.415 89.340, 227.636 86 C 225.027 81.101, 221.180 77.184, 216.500 74.658 C 212.534 72.518, 211.971 72.498, 149.500 72.321 C 114.850 72.223, 85.372 72.492, 83.994 72.920 M 303.332 73.835 C 293.589 77.233, 286.251 84.888, 283.427 94.602 C 282.163 98.951, 281.957 106.025, 282.204 136.665 C 282.487 171.846, 282.596 173.708, 284.637 178.122 C 287.705 184.757, 293.321 190.519, 299.839 193.720 L 305.500 196.500 364 196.500 C 421.644 196.500, 422.568 196.469, 427.122 194.363 C 433.757 191.295, 439.519 185.679, 442.720 179.161 L 445.500 173.500 445.500 134.500 L 445.500 95.500 442.720 89.839 C 439.519 83.321, 433.757 77.705, 427.122 74.637 C 422.592 72.543, 421.361 72.495, 365.500 72.266 C 312.805 72.050, 308.110 72.169, 303.332 73.835 M 299.994 225.920 C 293.087 228.061, 287.861 232.434, 284.364 239 C 282.585 242.340, 282.500 246.604, 282.500 332.500 C 282.500 418.396, 282.585 422.660, 284.364 426 C 286.973 430.899, 290.820 434.816, 295.500 437.342 C 299.480 439.489, 299.824 439.500, 364 439.500 C 428.176 439.500, 428.520 439.489, 432.500 437.342 C 437.180 434.816, 441.027 430.899, 443.636 426 C 445.415 422.660, 445.500 418.396, 445.500 332.500 C 445.500 246.604, 445.415 242.340, 443.636 239 C 441.027 234.101, 437.180 230.184, 432.500 227.658 C 428.534 225.518, 427.971 225.498, 365.500 225.321 C 330.850 225.223, 301.372 225.492, 299.994 225.920 M 87.332 316.835 C 77.589 320.233, 70.251 327.888, 67.427 337.602 C 66.163 341.951, 65.957 349.025, 66.204 379.665 C 66.487 414.846, 66.596 416.708, 68.637 421.122 C 71.705 427.757, 77.321 433.519, 83.839 436.720 L 89.500 439.500 148 439.500 C 205.644 439.500, 206.568 439.469, 211.122 437.363 C 217.757 434.295, 223.519 428.679, 226.720 422.161 L 229.500 416.500 229.500 377.500 L 229.500 338.500 226.720 332.839 C 223.519 326.321, 217.757 320.705, 211.122 317.637 C 206.592 315.543, 205.361 315.495, 149.500 315.266 C 96.805 315.050, 92.110 315.169, 87.332 316.835" stroke="none" fill="black" fill-rule="evenodd"/>
</svg>