<svg xmlns="http://www.w3.org/2000/svg" width="512" height="512" viewBox="0 0 512 512" version="1.1">
	<path d="M 0 256.002 L 0 512.004 256.250 511.752 L 512.500 511.500 512.752 255.750 L 513.004 0 256.502 0 L 0 0 0 256.002 M 0.492 256.500 C 0.492 397.300, 0.608 454.751, 0.750 384.170 C 0.892 313.588, 0.892 198.388, 0.750 128.170 C 0.608 57.951, 0.492 115.700, 0.492 256.500 M 117.500 112.573 C 112.974 114.926, 109.938 118.063, 107.890 122.500 C 106.152 126.265, 106.043 130.556, 106.022 195.554 L 106 264.607 108.483 269.554 C 109.924 272.424, 112.516 275.549, 114.659 277 L 118.352 279.500 169.664 279.776 C 218.591 280.040, 221.152 279.963, 224.738 278.133 C 229.033 275.941, 231.072 273.856, 233.379 269.300 C 234.828 266.439, 235 258.587, 235 195.245 L 235 124.392 232.113 119.840 C 230.195 116.814, 227.742 114.569, 224.798 113.144 C 220.450 111.039, 219.450 111, 170.434 111.006 C 127.148 111.012, 120.101 111.220, 117.500 112.573 M 292.242 112.494 C 286.454 115.010, 282.108 119.080, 279.484 124.444 L 276.918 129.688 277.209 161.175 L 277.500 192.662 280.526 197.554 C 282.400 200.584, 285.417 203.600, 288.447 205.474 L 293.341 208.500 339.920 208.784 C 392.553 209.106, 391.798 209.197, 398.765 201.639 C 405.903 193.896, 406.152 192.365, 405.806 158.459 C 405.515 129.981, 405.393 128.302, 403.342 124.500 C 400.516 119.264, 396.548 115.592, 391 113.081 C 386.682 111.126, 384.656 111.045, 341 111.061 C 303.987 111.075, 294.892 111.342, 292.242 112.494 M 287.500 233.651 C 283.077 236.009, 281.009 238.066, 278.894 242.210 C 277.088 245.748, 277 249.220, 277 316.764 L 277 387.608 279.887 392.160 C 281.818 395.206, 284.257 397.430, 287.257 398.883 C 291.704 401.035, 292.167 401.051, 342.779 400.777 L 393.816 400.500 397.658 397.442 C 399.771 395.760, 402.512 392.402, 403.750 389.980 L 406 385.576 406 316.484 L 406 247.393 403.517 242.446 C 402.076 239.576, 399.484 236.451, 397.341 235 L 393.648 232.500 342.074 232.276 C 296.439 232.077, 290.155 232.236, 287.500 233.651 M 120.500 304.850 C 115.406 307.190, 109.765 313.430, 107.585 319.137 C 106.098 323.032, 105.926 327.288, 106.194 353.541 C 106.485 382.019, 106.607 383.698, 108.658 387.500 C 111.484 392.736, 115.452 396.408, 121 398.919 C 125.312 400.871, 127.391 400.957, 170.782 400.978 C 219.770 401.002, 219.112 401.067, 226.475 395.451 C 228.387 393.993, 231.105 390.440, 232.516 387.556 L 235.082 382.312 234.791 350.825 L 234.500 319.338 231.474 314.446 C 229.600 311.416, 226.583 308.400, 223.553 306.526 L 218.659 303.500 171.580 303.257 C 127.711 303.030, 124.227 303.139, 120.500 304.850" stroke="none" fill="black" fill-rule="evenodd"/>
</svg>